<svg width="130" height="40" viewBox="0 0 130 40" fill="none" xmlns="http://www.w3.org/2000/svg">
<path d="M7.74562 30.9104C5.41169 30.9104 3.74964 30.2935 2.75949 29.0596C1.78701 27.8078 1.30078 26.0106 1.30078 23.6681V15.8356C1.30078 13.4394 1.78701 11.6332 2.75949 10.4172C3.73197 9.18335 5.394 8.56641 7.74562 8.56641C9.99116 8.56641 11.5825 9.11182 12.5196 10.2026C13.4567 11.2935 13.9252 12.8403 13.9252 14.8431V16.7208H9.2839V14.5481C9.2839 13.7076 9.1955 13.0638 9.01868 12.6168C8.84186 12.1697 8.41751 11.9462 7.74562 11.9462C7.07374 11.9462 6.6317 12.1876 6.41952 12.6704C6.20735 13.1353 6.10126 13.7881 6.10126 14.6285V24.8483C6.10126 25.7067 6.20735 26.3682 6.41952 26.8333C6.64939 27.2802 7.09141 27.5038 7.74562 27.5038C8.39984 27.5038 8.81534 27.2802 8.99216 26.8333C9.18665 26.3682 9.2839 25.7067 9.2839 24.8483V22.5683H13.9252V24.446C13.9252 26.4846 13.4567 28.076 12.5196 29.2206C11.5825 30.3471 9.99116 30.9104 7.74562 30.9104Z" fill="white"/>
<path d="M22.6909 30.9104C20.3747 30.9104 18.7214 30.3113 17.7313 29.1133C16.7412 27.8972 16.2461 26.109 16.2461 23.7486V15.6746C16.2461 13.3142 16.7412 11.5438 17.7313 10.3636C18.7214 9.16547 20.3747 8.56641 22.6909 8.56641C25.0249 8.56641 26.687 9.16547 27.6771 10.3636C28.6849 11.5617 29.1888 13.3321 29.1888 15.6746V23.7486C29.1888 26.109 28.6849 27.8972 27.6771 29.1133C26.687 30.3113 25.0249 30.9104 22.6909 30.9104ZM22.6909 27.5038C23.3628 27.5038 23.8049 27.2802 24.017 26.8333C24.2292 26.3682 24.3353 25.7424 24.3353 24.9556V14.4944C24.3353 13.6897 24.2292 13.0638 24.017 12.6168C23.8049 12.1697 23.3628 11.9462 22.6909 11.9462C22.0544 11.9462 21.6301 12.1786 21.4179 12.6436C21.2057 13.0906 21.0996 13.7076 21.0996 14.4944V24.9556C21.0996 25.7424 21.1969 26.3682 21.3914 26.8333C21.5858 27.2802 22.0191 27.5038 22.6909 27.5038Z" fill="white"/>
<path d="M32.3674 8.86133H37.4596L39.8201 21.4952L42.3662 8.86133H47.2728L47.6441 30.5884H44.2758L43.8779 16.1305L41.3849 30.5884H38.3879L35.7357 16.0232L35.4174 30.5884H31.9961L32.3674 8.86133Z" fill="white"/>
<path d="M50.7773 8.86133H55.5248V30.5884H50.7773V8.86133Z" fill="white"/>
<path d="M64.8823 30.9104C62.5484 30.9104 60.8863 30.2935 59.8962 29.0596C58.9237 27.8078 58.4375 26.0106 58.4375 23.6681V15.8356C58.4375 13.4394 58.9237 11.6332 59.8962 10.4172C60.8687 9.18335 62.5307 8.56641 64.8823 8.56641C67.1278 8.56641 68.7192 9.11182 69.6563 10.2026C70.5934 11.2935 71.062 12.8403 71.062 14.8431V16.7208H66.4206V14.5481C66.4206 13.7076 66.3321 13.0638 66.1554 12.6168C65.9785 12.1697 65.5542 11.9462 64.8823 11.9462C64.2104 11.9462 63.7684 12.1876 63.5562 12.6704C63.3441 13.1353 63.238 13.7881 63.238 14.6285V24.8483C63.238 25.7067 63.3441 26.3682 63.5562 26.8333C63.786 27.2802 64.2281 27.5038 64.8823 27.5038C65.5365 27.5038 65.952 27.2802 66.1289 26.8333C66.3233 26.3682 66.4206 25.7067 66.4206 24.8483V22.5683H71.062V24.446C71.062 26.4846 70.5934 28.076 69.6563 29.2206C68.7192 30.3471 67.1278 30.9104 64.8823 30.9104Z" fill="white"/>
<path d="M80.4609 8.86133H86.0571C87.4538 8.86133 88.6385 9.01333 89.611 9.31733C90.6011 9.60345 91.3968 10.1667 91.998 11.0072C92.5991 11.8477 92.8997 13.0279 92.8997 14.5479C92.8997 15.8354 92.6256 16.8369 92.0776 17.5522C91.5294 18.2675 90.7515 18.7235 89.7436 18.9202C90.9812 19.0811 91.9272 19.6086 92.5815 20.5027C93.2356 21.3969 93.5628 22.6128 93.5628 24.1508C93.5628 28.4425 91.3968 30.5884 87.0649 30.5884H80.4609V8.86133ZM86.1366 17.5522C87.1445 17.5522 87.8251 17.3197 88.1788 16.8547C88.5501 16.3898 88.7358 15.6656 88.7358 14.682C88.7358 13.8237 88.5059 13.1799 88.0462 12.7507C87.5864 12.3037 86.9146 12.0802 86.0306 12.0802H85.2084V17.5522H86.1366ZM86.2162 27.2355C87.224 27.2355 87.9312 26.985 88.338 26.4844C88.7623 25.9657 88.9745 25.161 88.9745 24.0703C88.9745 22.8364 88.7623 21.9691 88.338 21.4684C87.9312 20.9677 87.2151 20.7173 86.1897 20.7173H85.2084V27.2355H86.2162Z" fill="white"/>
<path d="M102.203 30.9104C99.8864 30.9104 98.2331 30.3113 97.243 29.1133C96.2529 27.8972 95.7578 26.109 95.7578 23.7486V15.6746C95.7578 13.3142 96.2529 11.5438 97.243 10.3636C98.2331 9.16547 99.8864 8.56641 102.203 8.56641C104.537 8.56641 106.199 9.16547 107.189 10.3636C108.197 11.5617 108.701 13.3321 108.701 15.6746V23.7486C108.701 26.109 108.197 27.8972 107.189 29.1133C106.199 30.3113 104.537 30.9104 102.203 30.9104ZM102.203 27.5038C102.874 27.5038 103.317 27.2802 103.529 26.8333C103.741 26.3682 103.847 25.7424 103.847 24.9556V14.4944C103.847 13.6897 103.741 13.0638 103.529 12.6168C103.317 12.1697 102.874 11.9462 102.203 11.9462C101.566 11.9462 101.142 12.1786 100.93 12.6436C100.717 13.0906 100.611 13.7076 100.611 14.4944V24.9556C100.611 25.7424 100.708 26.3682 100.903 26.8333C101.098 27.2802 101.531 27.5038 102.203 27.5038Z" fill="white"/>
<path d="M113.933 18.8933L109.955 8.86133H114.437L116.798 14.7357L118.707 8.86133H122.659L118.893 20.154L123.084 30.5884H118.628L116.002 24.0971L113.695 30.5884H109.77L113.933 18.8933Z" fill="white"/>
<path d="M124.453 26.457H128.538V30.5879H124.453V26.457Z" fill="white"/>
<mask id="mask0_6054_1365" style="mask-type:alpha" maskUnits="userSpaceOnUse" x="1" y="8" width="128" height="23">
<path d="M7.74562 30.9104C5.41169 30.9104 3.74964 30.2935 2.75949 29.0596C1.78701 27.8078 1.30078 26.0106 1.30078 23.6681V15.8356C1.30078 13.4394 1.78701 11.6332 2.75949 10.4172C3.73197 9.18335 5.394 8.56641 7.74562 8.56641C9.99116 8.56641 11.5825 9.11182 12.5196 10.2026C13.4567 11.2935 13.9252 12.8403 13.9252 14.8431V16.7208H9.2839V14.5481C9.2839 13.7076 9.1955 13.0638 9.01868 12.6168C8.84186 12.1697 8.41751 11.9462 7.74562 11.9462C7.07374 11.9462 6.6317 12.1876 6.41952 12.6704C6.20735 13.1353 6.10126 13.7881 6.10126 14.6285V24.8483C6.10126 25.7067 6.20735 26.3682 6.41952 26.8333C6.64939 27.2802 7.09141 27.5038 7.74562 27.5038C8.39984 27.5038 8.81534 27.2802 8.99216 26.8333C9.18665 26.3682 9.2839 25.7067 9.2839 24.8483V22.5683H13.9252V24.446C13.9252 26.4846 13.4567 28.076 12.5196 29.2206C11.5825 30.3471 9.99116 30.9104 7.74562 30.9104Z" fill="white"/>
<path d="M22.6909 30.9104C20.3747 30.9104 18.7214 30.3113 17.7313 29.1133C16.7412 27.8972 16.2461 26.109 16.2461 23.7486V15.6746C16.2461 13.3142 16.7412 11.5438 17.7313 10.3636C18.7214 9.16547 20.3747 8.56641 22.6909 8.56641C25.0249 8.56641 26.687 9.16547 27.6771 10.3636C28.6849 11.5617 29.1888 13.3321 29.1888 15.6746V23.7486C29.1888 26.109 28.6849 27.8972 27.6771 29.1133C26.687 30.3113 25.0249 30.9104 22.6909 30.9104ZM22.6909 27.5038C23.3628 27.5038 23.8049 27.2802 24.017 26.8333C24.2292 26.3682 24.3353 25.7424 24.3353 24.9556V14.4944C24.3353 13.6897 24.2292 13.0638 24.017 12.6168C23.8049 12.1697 23.3628 11.9462 22.6909 11.9462C22.0544 11.9462 21.6301 12.1786 21.4179 12.6436C21.2057 13.0906 21.0996 13.7076 21.0996 14.4944V24.9556C21.0996 25.7424 21.1969 26.3682 21.3914 26.8333C21.5858 27.2802 22.0191 27.5038 22.6909 27.5038Z" fill="white"/>
<path d="M32.3674 8.86133H37.4596L39.8201 21.4952L42.3662 8.86133H47.2728L47.6441 30.5884H44.2758L43.8779 16.1305L41.3849 30.5884H38.3879L35.7357 16.0232L35.4174 30.5884H31.9961L32.3674 8.86133Z" fill="white"/>
<path d="M50.7773 8.86133H55.5248V30.5884H50.7773V8.86133Z" fill="white"/>
<path d="M64.8823 30.9104C62.5484 30.9104 60.8863 30.2935 59.8962 29.0596C58.9237 27.8078 58.4375 26.0106 58.4375 23.6681V15.8356C58.4375 13.4394 58.9237 11.6332 59.8962 10.4172C60.8687 9.18335 62.5307 8.56641 64.8823 8.56641C67.1278 8.56641 68.7192 9.11182 69.6563 10.2026C70.5934 11.2935 71.062 12.8403 71.062 14.8431V16.7208H66.4206V14.5481C66.4206 13.7076 66.3321 13.0638 66.1554 12.6168C65.9785 12.1697 65.5542 11.9462 64.8823 11.9462C64.2104 11.9462 63.7684 12.1876 63.5562 12.6704C63.3441 13.1353 63.238 13.7881 63.238 14.6285V24.8483C63.238 25.7067 63.3441 26.3682 63.5562 26.8333C63.786 27.2802 64.2281 27.5038 64.8823 27.5038C65.5365 27.5038 65.952 27.2802 66.1289 26.8333C66.3233 26.3682 66.4206 25.7067 66.4206 24.8483V22.5683H71.062V24.446C71.062 26.4846 70.5934 28.076 69.6563 29.2206C68.7192 30.3471 67.1278 30.9104 64.8823 30.9104Z" fill="white"/>
<path d="M80.4609 8.86133H86.0571C87.4538 8.86133 88.6385 9.01333 89.611 9.31733C90.6011 9.60345 91.3968 10.1667 91.998 11.0072C92.5991 11.8477 92.8997 13.0279 92.8997 14.5479C92.8997 15.8354 92.6256 16.8369 92.0776 17.5522C91.5294 18.2675 90.7515 18.7235 89.7436 18.9202C90.9812 19.0811 91.9272 19.6086 92.5815 20.5027C93.2356 21.3969 93.5628 22.6128 93.5628 24.1508C93.5628 28.4425 91.3968 30.5884 87.0649 30.5884H80.4609V8.86133ZM86.1366 17.5522C87.1445 17.5522 87.8251 17.3197 88.1788 16.8547C88.5501 16.3898 88.7358 15.6656 88.7358 14.682C88.7358 13.8237 88.5059 13.1799 88.0462 12.7507C87.5864 12.3037 86.9146 12.0802 86.0306 12.0802H85.2084V17.5522H86.1366ZM86.2162 27.2355C87.224 27.2355 87.9312 26.985 88.338 26.4844C88.7623 25.9657 88.9745 25.161 88.9745 24.0703C88.9745 22.8364 88.7623 21.9691 88.338 21.4684C87.9312 20.9677 87.2151 20.7173 86.1897 20.7173H85.2084V27.2355H86.2162Z" fill="white"/>
<path d="M102.203 30.9104C99.8864 30.9104 98.2331 30.3113 97.243 29.1133C96.2529 27.8972 95.7578 26.109 95.7578 23.7486V15.6746C95.7578 13.3142 96.2529 11.5438 97.243 10.3636C98.2331 9.16547 99.8864 8.56641 102.203 8.56641C104.537 8.56641 106.199 9.16547 107.189 10.3636C108.197 11.5617 108.701 13.3321 108.701 15.6746V23.7486C108.701 26.109 108.197 27.8972 107.189 29.1133C106.199 30.3113 104.537 30.9104 102.203 30.9104ZM102.203 27.5038C102.874 27.5038 103.317 27.2802 103.529 26.8333C103.741 26.3682 103.847 25.7424 103.847 24.9556V14.4944C103.847 13.6897 103.741 13.0638 103.529 12.6168C103.317 12.1697 102.874 11.9462 102.203 11.9462C101.566 11.9462 101.142 12.1786 100.93 12.6436C100.717 13.0906 100.611 13.7076 100.611 14.4944V24.9556C100.611 25.7424 100.708 26.3682 100.903 26.8333C101.098 27.2802 101.531 27.5038 102.203 27.5038Z" fill="white"/>
<path d="M113.933 18.8933L109.955 8.86133H114.437L116.798 14.7357L118.707 8.86133H122.659L118.893 20.154L123.084 30.5884H118.628L116.002 24.0971L113.695 30.5884H109.77L113.933 18.8933Z" fill="white"/>
<path d="M124.457 26.458H128.541V30.5888H124.457V26.458Z" fill="white"/>
</mask>
<g mask="url(#mask0_6054_1365)">
<path d="M129.819 6.58789H79.5664V31.9997H129.819V6.58789Z" fill="#10B981"/>
</g>
</svg>
